<?xml version="1.0"?><svg width="600" height="1000" xmlns="http://www.w3.org/2000/svg">
 <title>big man</title>

 <g>
  <title>Layer 1</title>
  <g id="g5">
   <path fill-rule="evenodd" stroke="#000000" stroke-width="0.036" stroke-miterlimit="10" id="path7" d="m241.720032,259.377716c-6.540161,4.704437 -14.526764,10.148895 -23.959747,16.5448c-9.558746,6.450287 -20.43808,13.373322 -32.889618,21.566437l0,0c-7.043213,1.05719 -13.835022,3.01297 -21.381348,6.078766c-7.797974,2.907257 -16.539185,6.607361 -23.079346,11.894745c-6.288635,5.178711 -9.936096,9.671692 -14.589661,19.397705c-4.779419,9.778931 -10.627808,23.205048 -13.646423,38.428467c-3.27002,15.011902 -5.156677,36.419739 -5.156677,51.378815c-0.062866,14.800507 2.326843,26.746582 4.716431,36.684052c2.01239,9.620331 0.440247,8.034546 8.112427,21.51358c7.546387,13.584717 19.872131,32.826813 37.22876,58.937653l0,0c2.389709,0.052856 4.653564,-0.104248 6.791748,-0.687134c2.138123,-0.687195 3.773193,-1.585815 5.596924,-2.905762l0,0c0.691711,4.228699 0.880371,8.140259 0.817566,11.523193c-0.440247,3.382996 -1.823792,6.184448 -1.697937,8.985962c0,2.590149 1.509216,5.391663 2.578308,7.188843c0.880371,1.691528 2.075256,2.431519 3.83606,3.224365c1.760803,0.634399 3.961792,1.057251 6.854614,1.057251l0,0l0,10.784668l0,0c-3.333008,0.051392 -6.980347,0.157104 -10.250488,0.73999c-3.332947,0.5271 -6.980408,1.110046 -10.250488,2.167236l0,0c-2.075317,22.465027 -3.081421,46.410095 -3.018555,73.473816c0.062866,26.95813 1.194824,55.397583 3.395813,86.952942l0,0c7.86084,0.105713 15.847412,0.105713 23.959778,0c8.112427,-0.264343 16.161865,-0.634399 24.399994,-1.110046l0,0l2.138123,-40.964233l0,0c1.383514,8.244568 3.081451,16.437683 5.093811,24.790833c2.075256,8.351685 4.842255,19.452026 6.854645,25.160828c1.8237,5.497375 2.138123,6.078796 3.83606,8.246033c1.509277,2.008606 3.144318,3.330078 5.156708,3.964355l0,0c2.766998,13.688965 4.779388,27.116699 6.791718,40.701416c1.697937,13.637573 3.45874,28.279419 4.276276,40.225647c0.565979,11.681702 0.062897,21.303528 0.440186,29.866699c0.314453,8.351685 0.880432,15.170471 1.697968,20.45636l0,0c3.898956,0.052856 7.420624,0.052856 10.313385,0c2.955658,-0.158569 5.28244,-0.212891 7.231934,-0.369995l0,0l0,2.537231l0,0c-6.665955,2.008667 -13.709259,6.025879 -21.381409,11.840332c-7.797913,5.973083 -18.740143,15.276245 -24.337067,22.993591c-5.848419,7.504517 -8.992737,15.593445 -9.432953,21.196472c-0.440216,5.391602 2.075226,10.413147 7.2948,10.783203c5.219604,0.105713 14.526794,-4.43866 23.079346,-9.354553c8.363922,-5.127319 17.16803,-11.681824 26.915405,-20.457886l0,0l13.269043,0l0,0c3.081451,-2.801514 6.288666,-5.601501 9.370117,-8.615906c2.892761,-3.065857 7.357697,-5.97168 8.992767,-9.356018c1.383484,-3.753052 1.509247,-7.981812 0.880402,-11.838928c-0.565979,-3.805969 -1.760803,-7.40033 -3.83609,-10.783264l0,0l0,0c2.641235,-1.321472 4.402069,-2.325806 5.534027,-3.594421c1.006165,-1.321411 1.383514,-2.325745 0.880402,-3.59436l0,0c1.069061,-0.211487 2.389709,-0.211487 4.653625,0c2.075226,0.052795 4.779358,0.369934 8.112335,0.73999l0,0l0,0c-2.641266,1.955811 -4.653595,4.334473 -5.533997,7.135925c-0.943329,2.748718 -0.691772,5.867371 -0.440186,9.356018c0,3.17157 0.379028,6.607361 0.880371,10.09613l0,0c1.699677,3.75293 4.339203,6.977295 7.673889,9.673035c3.270111,2.748718 7.483521,4.757324 12.388641,6.448853l0,0l13.269073,-2.482849l0,0c4.716492,5.021606 11.384186,9.6203 20.500946,14.007568c8.992828,4.334412 25.783508,11.415955 33.392761,11.838928c7.420593,0.15863 12.325745,-4.334473 11.068024,-10.413208c-1.697937,-6.290161 -12.011322,-18.236389 -20.060822,-25.847961c-8.300995,-7.82312 -20.123657,-15.22345 -27.984467,-19.5578c-7.736755,-4.22876 -14.023682,-6.290222 -18.61441,-5.973022l0,0l1.257751,-5.021606l0,0c3.144318,-0.475769 6.225769,-0.89856 8.992767,-1.05719c2.704132,-0.3172 5.345337,-0.370056 7.67215,-0.370056l0,0c-2.263885,-23.363647 -2.766998,-44.877136 -1.257751,-65.75647c1.509308,-20.879211 4.527863,-40.119812 9.810303,-58.567627l0,0c2.389709,-0.265808 4.213409,-2.431519 6.414429,-6.924438c1.82373,-4.494507 2.953918,-4.494507 5.596924,-19.770752c2.513702,-15.752014 6.161133,-50.004517 10.250458,-72.575195c3.834351,-22.623657 8.615448,-42.549927 13.646362,-61.422058l0,0c7.357727,-1.05719 12.703064,-3.065857 16.287598,-6.237366c3.395874,-3.275757 3.333008,-7.400208 4.653595,-12.578979c1.257751,-5.287354 2.263947,-11.364624 3.018555,-18.65918l0,0c4.339172,-0.265747 7.357758,-1.11145 9.810303,-2.538696c2.138153,-1.691467 3.207245,-3.224365 3.898987,-6.44873c0.627106,-3.331543 -0.628876,-8.880371 0.377319,-12.580444c0.943268,-3.700073 2.578339,-6.818848 5.156677,-9.356018l0,0c1.507507,1.427185 3.6474,2.748657 6.414429,3.964417c2.641235,1.162903 5.911316,2.061523 9.810303,2.905762l0,0c10.627777,-36.155518 18.865906,-64.065002 25.217468,-85.789948c6.225739,-21.566437 10.627808,-29.706726 12.011292,-42.762848c1.257751,-13.161865 0.062897,-21.143585 -4.276276,-35.574036c-4.653595,-14.694763 -15.721649,-38.745575 -22.26181,-50.955963c-6.601318,-12.157562 -7.169067,-16.227692 -16.222961,-21.566437c-9.30719,-5.444458 -21.821625,-9.038879 -38.486511,-10.783203l0,0c-6.730621,-5.444489 -15.34433,-10.254639 -26.09787,-15.064758c-10.879364,-4.810181 -23.456696,-9.251801 -38.423645,-13.320465l0,0c-37.295227,-1.273041 -74.648041,-2.543091 -112.004364,-3.863098l0,0z"/>
   <path fill="#ffffff" fill-rule="evenodd" stroke="#000000" stroke-width="0.036" stroke-miterlimit="10" id="path9" d="m214.995026,280.997009l29.619537,-19.7164l108.730774,3.065826l25.219208,9.250305l0,0c-6.225769,5.127319 -12.830597,11.311829 -20.501038,18.764893c-7.735016,7.347412 -18.111267,18.236328 -24.840149,25.530853c-6.665955,7.083099 -11.759766,12.897583 -15.029877,17.231995l0,0c-2.200989,-9.144562 -4.779327,-16.966217 -8.426788,-24.315094c-3.584503,-7.400238 -9.810242,-14.904724 -12.828827,-19.080566c-3.144318,-4.230164 -5.093811,-6.343079 -5.84845,-6.133118l0,0c-4.716461,6.290222 -9.30719,13.533356 -13.520569,21.51358c-4.464935,8.087372 -8.175262,16.650543 -12.074188,26.482269l0,0c-5.974243,-8.351685 -12.074219,-16.069092 -18.299988,-23.363617c-6.351532,-7.505951 -14.212341,-15.434784 -19.431915,-20.350677c-5.537506,-4.915833 -9.560516,-7.875977 -12.767731,-8.880249l0,0z"/>
   <path fill="#a80000" fill-rule="evenodd" stroke="#000000" stroke-width="0.036" stroke-miterlimit="10" id="path11" d="m290.394196,289.295837c-5.093811,9.7789 -8.929871,17.60199 -11.759766,23.680786c-2.892822,6.078766 -4.716492,10.148895 -5.47113,12.63327l0,0c2.263916,4.651581 4.464935,8.563141 6.603088,12.316132c2.138123,3.59436 4.213379,6.76593 6.225739,9.514587l0,0c0.754639,0.211426 2.01239,0.211426 4.02475,0c1.949463,-0.211426 6.603088,-1.638611 7.67215,-1.215759c0.691742,0.158569 -0.503113,1.95578 -2.578339,2.748657c-2.20105,0.634338 -5.534027,1.215759 -10.250488,1.532898l0,0c-3.081451,9.673218 -5.84845,18.764923 -8.049469,27.698059c-2.326813,8.933167 -4.150513,17.073425 -5.471161,25.213715l0,0c1.760864,2.325775 4.527863,6.290192 8.804108,12.316132c4.213379,5.920135 9.49588,13.479004 16.098969,23.099335l0,0c1.572113,-5.127319 3.332977,-10.571808 6.225769,-16.914886c2.704132,-6.290192 5.911316,-13.161835 9.873169,-20.614929l0,0c-2.955658,-9.990356 -5.410004,-19.663513 -7.357727,-29.230957c-1.949493,-9.673187 -3.395905,-18.870667 -4.339172,-28.015228l0,0c3.6474,-3.435822 6.477295,-6.237335 8.741241,-8.615997c2.200989,-2.537231 3.584503,-4.122986 4.403809,-5.550171l0,0c-2.20282,-8.404602 -5.156708,-16.067657 -9.120331,-22.782196c-4.024719,-6.818817 -8.615448,-12.686127 -14.275208,-17.813446l0,0z"/>
   <path fill="#ffffff" fill-rule="evenodd" stroke="#000000" stroke-width="0.036" stroke-miterlimit="10" id="path13" d="m214.615967,282.212769l-3.332947,1.850037l0,0c7.986572,16.546295 14.715424,31.028198 20.878296,44.295746c5.911316,13.109009 8.741241,22.042145 15.029846,34.146851c6.162903,11.998962 13.394806,24.36795 21.947388,37.529816l0,0c1.949493,-10.994629 4.02475,-20.826416 6.225769,-29.4953c2.075226,-8.827393 4.276276,-16.227661 6.603058,-22.782135l0,0c-3.144318,-5.86734 -5.156647,-10.307526 -6.980377,-13.531891c-1.760834,-3.277283 -2.766998,-5.233032 -3.270081,-5.86734l0,0c-1.572174,3.964417 -2.829895,6.395905 -4.02475,7.717407c-1.131927,1.268585 -1.509247,1.427155 -3.333008,-0.317169c-2.012329,-1.902924 -4.716461,-5.603058 -9.1185,-11.100372c-4.842255,-5.707275 -11.50824,-15.381927 -18.299957,-22.463531c-6.791779,-7.084564 -14.149475,-13.744812 -22.324738,-19.982117l0,0z"/>
   <path fill="#ffffff" fill-rule="evenodd" stroke="#000000" stroke-width="0.036" stroke-miterlimit="10" id="path15" d="m380.070313,274.8125l2.515442,0.634308l0,0c1.570465,3.437286 1.446411,8.298859 -1.069061,15.383392c-2.578308,7.030273 -7.735046,16.439117 -13.520569,26.165161c-6.037109,9.565979 -15.281433,21.247803 -21.632965,30.762421c-6.477295,9.197418 -11.758026,16.54483 -16.851837,24.896515c-5.156708,8.457397 -10.000702,16.439148 -14.275238,24.949402l0,0c-3.020294,-11.100342 -5.535736,-20.562073 -7.296539,-29.230957c-1.886627,-8.668823 -3.018585,-15.910522 -3.647461,-22.147888l0,0c1.760834,-2.114349 3.584534,-4.175842 5.47113,-6.184509c1.762573,-2.167175 3.586273,-4.017242 5.47287,-6.131622l0,0c0.377319,1.004364 0.880432,1.744354 1.507538,2.431549c0.503082,0.634277 1.069092,1.532898 2.202789,1.268585c0.941528,-0.475739 0.941528,-0.317139 4.402039,-4.017303c3.332977,-3.964355 10.250488,-12.314636 16.413361,-18.764893c6.098267,-6.607361 14.525024,-14.271881 20.186584,-19.716339c5.345337,-5.444489 9.431213,-9.673187 12.765961,-12.897552c3.458771,-3.382996 5.595154,-5.920227 7.355957,-7.400269l0,0z"/>
   <path fill="#294b70" fill-rule="evenodd" stroke="#000000" stroke-width="0.036" stroke-miterlimit="10" id="path17" d="m208.769257,285.595703c-4.464935,2.431519 -8.175171,4.598724 -12.074188,7.083099c-3.83606,2.431519 -7.2948,4.598724 -10.627808,7.083099l0,0c3.395874,6.977356 6.351563,13.53186 9.11853,19.663513c2.578369,6.184479 4.213379,11.417511 7.357727,16.914856c3.081451,5.338745 6.854614,10.307434 11.31958,15.117615l0,0c1.069061,1.05719 3.018555,1.691467 5.84845,2.114319c2.766998,0.264313 6.351532,0.264313 11.005127,0l0,0c1.069061,1.902954 1.760803,4.704498 1.8237,8.616028c0.062897,3.858704 -0.314453,8.615997 -1.131958,14.483337l0,0c1.194855,2.378662 4.464966,7.030212 9.558746,14.166199c5.156677,7.188782 14.652557,20.350647 21.192749,28.27948c6.225739,7.611664 11.759766,13.161835 16.853577,17.866302c5.093781,4.81015 9.244324,8.034576 13.206146,10.466034l0,0l3.270111,-7.083038l0,0c-8.301025,-9.091766 -15.910278,-18.65921 -23.079315,-28.913818c-7.29483,-10.360382 -13.080414,-20.086395 -19.746399,-32.613922c-6.980377,-12.79187 -13.897919,-28.385223 -20.500977,-42.498535c-6.791718,-14.270447 -15.092773,-33.301117 -19.054596,-41.811401c-3.963623,-8.564606 -5.410004,-11.470398 -4.339203,-8.933167l0,0z"/>
   <path fill="#294b70" fill-rule="evenodd" stroke="#000000" stroke-width="0.036" stroke-miterlimit="10" id="path19" d="m385.920502,276.662537c5.408234,1.638672 10.564911,4.070129 15.721619,7.08313c5.156677,3.118652 9.998932,6.554504 15.029877,11.101807l0,0c-2.766998,6.341614 -6.100006,13.001831 -10.250488,20.61499c-4.274567,7.557343 -10.627838,18.763428 -14.652557,24.260742c-4.150513,5.127289 -5.219574,5.550171 -9.49585,7.400238c-4.403778,1.850067 -9.810303,3.01297 -16.478027,3.700134l0,0c-1.383484,1.95578 -1.760834,5.127289 -1.130219,9.514587c0.627136,4.334442 2.138153,9.884613 4.777618,16.650543l0,0c-6.037109,7.717407 -12.388641,15.329071 -19.052826,23.046509c-6.730621,7.66452 -12.264648,14.58905 -21.194519,22.782135c-9.244293,8.193176 -20.186523,16.544861 -33.329803,25.847992l0,0c-0.062897,-1.638611 1.320587,-5.973053 4.402039,-13.214722c3.207214,-7.453094 8.741241,-21.037842 13.897919,-30.182434c4.905151,-9.091675 8.867004,-14.959015 15.029846,-24.315063c5.850189,-9.726013 14.151245,-22.782166 20.81543,-32.613892c6.665985,-9.831787 13.143311,-18.130646 18.677307,-26.112305c5.408264,-8.140259 10.061829,-15.327637 13.206146,-22.147888c2.829895,-6.977356 3.64743,-14.853333 4.403809,-18.764893c0.565948,-3.964417 0.438446,-5.445923 -0.377319,-4.651611l0,0z"/>
   <path fill-rule="evenodd" stroke="#000000" stroke-width="0.036" stroke-miterlimit="10" id="path21" d="m172.293335,189.128265c-0.125732,5.761597 1.006226,12.103195 3.144348,19.240631c2.075317,7.030212 5.156738,15.699066 9.495911,23.363617c4.276306,7.557373 9.118469,15.327606 15.470062,22.306458c6.099945,7.081604 13.080383,13.266113 21.192719,19.133423c7.986603,5.550201 16.727814,10.677521 27.229828,14.377655c10.564972,3.701538 23.834015,6.450256 35.405121,7.453094c11.382446,0.687164 22.073151,-0.105743 32.575165,-2.378662c10.440948,-2.431488 20.689636,-6.078766 29.996857,-10.941803c9.1203,-5.021606 17.482452,-12.421814 24.401733,-18.340546c6.414398,-6.080261 11.005096,-11.364685 15.468323,-17.496292c4.527802,-6.184494 8.426788,-12.633286 11.696869,-19.134933c3.144318,-6.607361 5.596893,-14.007599 7.607544,-19.980652c1.886597,-6.025925 3.144287,-11.258942 3.773163,-15.910522l0,0c1.8237,0.740021 4.150513,1.110046 6.980408,1.110046c2.829865,-0.052872 6.728851,0.052856 9.747406,-1.320023c2.892761,-1.585754 5.408234,-3.805832 7.29483,-7.45311c1.636749,-3.701584 2.892792,-9.514587 2.829865,-14.590515c-0.251526,-5.391602 -2.075226,-12.316116 -3.773163,-16.490494c-1.886597,-4.124466 -4.02475,-6.660233 -6.664215,-8.246002c-2.892792,-1.691483 -6.353302,-1.902908 -9.432983,-1.850052c-3.081421,-0.052856 -5.848419,0.317154 -8.552551,1.320007l0,0c1.63504,-5.231567 1.63504,-11.576096 0,-19.663506c-1.82547,-8.08741 -4.969818,-18.659187 -10.126465,-28.438087c-5.47113,-9.937454 -15.658783,-23.416473 -20.876587,-30.445244c-5.219543,-6.925987 -5.282471,-8.088875 -9.684509,-11.47184c-4.403839,-3.594406 -9.432983,-7.241669 -16.540924,-9.726036c-7.2948,-2.801521 -16.161835,-4.757301 -26.349396,-5.86734c-10.374512,-1.320007 -22.261841,-1.58577 -34.713348,-0.581444c-12.765961,0.949989 -27.607178,3.171532 -40.121552,7.45163c-12.640198,4.334435 -23.833984,10.784683 -33.832916,18.342026c-10.187653,7.45311 -18.740173,16.599159 -25.657715,25.795151c-6.980408,8.933151 -11.885498,20.879257 -15.470093,27.909485c-3.83606,6.871651 -4.905151,9.620316 -6.351501,13.531876c-1.446411,3.964417 -2.075256,6.873123 -1.886597,9.303162c0.18866,2.168686 0.817505,3.331573 2.578308,3.701599l0,0c-4.339172,-0.264297 -7.735046,0.527115 -10.439087,2.167206c-2.767029,1.58577 -4.339233,4.28157 -5.722717,7.666016c-1.63501,3.330109 -3.270081,7.347382 -3.45874,12.26326c-0.125732,4.863022 0.062866,12.633286 2.515442,16.756271c2.263916,3.858688 7.923767,6.184479 11.382446,7.400238c3.46228,1.055695 6.164612,1.161423 8.868713,-0.265747l0,0z"/>
   <path fill="#e8cdba" fill-rule="evenodd" stroke="#000000" stroke-width="0.036" stroke-miterlimit="10" id="path23" d="m179.841553,143.405319c4.024658,-1.797211 8.363831,-4.175858 13.017456,-7.134491c4.527832,-3.118668 10.187622,-7.030228 14.526764,-10.888931c4.276276,-4.230179 7.67215,-8.881767 10.439178,-12.527557c2.452545,-3.488678 3.83606,-6.39592 4.402039,-8.510277l0,0c10.124725,2.167213 19.557709,3.382965 28.802032,4.281563c9.244293,0.527122 17.985504,0.474274 26.223663,0.264297c7.986572,-0.211433 14.023651,0.052864 21.507141,-1.057175c7.420624,-1.215759 15.470093,-3.858704 22.45224,-5.86734c6.791718,-2.168678 12.451538,-3.91156 17.732239,-6.660217c5.030914,-2.907242 9.057373,-6.13163 12.327484,-10.096039l0,0c2.578339,4.54586 5.217834,9.356018 8.175262,14.641907c2.955658,5.180176 5.785522,10.83606 9.181427,16.756264c3.27005,5.867332 6.73056,13.161873 10.124725,18.39489c3.08316,5.074448 6.351532,9.356018 8.866974,12.208939c2.389679,2.644409 3.270081,2.961563 5.345337,4.017273c2.01239,0.898605 3.898987,1.58577 6.353302,1.850067l0,0c-0.440186,0.951462 -0.565979,2.008636 -0.628876,3.171524c-0.125763,0.951462 0.062897,3.331589 0.314453,3.701599c0.188629,0.264297 0.503052,-0.158585 0.943298,-1.058655c0.316162,-0.897125 0.503052,-2.695801 1.25943,-3.962936c0.627167,-1.481522 1.570435,-2.907242 2.828156,-4.28157c1.069092,-1.534393 2.643005,-3.224396 4.466705,-4.230179c1.697937,-1.110046 3.897217,-2.007172 6.603088,-2.112885c2.578339,-0.317169 6.791748,-0.581467 9.49585,1.057175c2.641205,1.638611 5.093811,5.33873 6.665985,9.038864c1.257721,3.488693 1.886597,7.557343 1.886597,12.208923c0.061127,4.547333 -0.56601,11.154694 -1.886597,14.906204c-1.509308,3.435837 -4.02652,5.657379 -7.2966,6.871658c-3.521637,1.215759 -9.684509,1.481522 -12.638428,0.581451c-2.955658,-1.057175 -4.339172,-5.285889 -5.347107,-6.131638c-1.320618,-0.845718 -1.697937,-0.212875 -1.63501,1.05719c-0.062927,1.057175 2.138123,2.537216 2.263855,5.86734c0.062927,3.224396 -0.188629,7.083084 -1.949463,13.796158c-2.138123,6.607361 -5.47113,17.444885 -9.747406,25.585175c-4.402039,8.034546 -9.68454,15.327606 -15.595856,22.304962c-5.84845,6.820282 -12.011322,13.057648 -19.683441,18.924988c-7.986572,5.761597 -18.364624,11.893219 -27.481415,15.751923c-9.30722,3.594391 -17.105103,5.708771 -27.481384,6.554535c-10.690674,0.845703 -24.148376,0.369995 -35.027771,-1.427216c-11.067993,-2.008636 -20.249451,-5.391571 -29.93396,-10.148895c-9.747406,-4.96875 -19.809235,-11.73468 -27.795837,-18.872101c-8.112335,-7.347382 -14.77829,-16.597687 -19.997894,-24.103653c-5.282471,-7.664536 -8.552551,-14.534714 -11.256653,-21.036392c-2.955627,-6.713058 -4.590759,-12.950394 -5.596924,-17.866272c-1.069031,-4.864502 -1.257751,-8.721741 -0.565979,-11.364685l0,0c1.886597,-1.79866 3.333008,-3.331558 4.087646,-4.810135c0.754639,-1.58577 0.628845,-4.06868 0.314453,-4.015808c-0.628906,-0.105728 -1.760864,2.590088 -3.144348,4.015808c-1.44635,1.375793 -3.144287,3.75444 -5.345398,4.494461c-2.704041,0.474258 -6.162842,0.474258 -9.181335,-0.792892c-3.081482,-1.375778 -6.288635,-3.701569 -7.923767,-7.188782c-1.697876,-3.488693 -2.138123,-9.144608 -1.572144,-13.531891c0.377319,-4.651581 2.138123,-10.043182 4.087646,-13.320435c1.823669,-3.382965 4.402039,-4.863022 6.980347,-6.078766c2.389709,-1.268616 5.408264,-0.951477 7.609253,-1.05719c1.82373,-0.212891 2.892761,-0.422867 4.4021,0c1.760803,0.211441 3.521606,0.634308 5.030945,1.850067c1.194824,1.004318 1.63501,4.651581 2.263855,5.021591c0.440186,0.211426 0.880432,-1.427185 0.628906,-2.907242c-0.445496,-1.590164 -1.325867,-3.493088 -2.89624,-6.134552l0,0z"/>
   <path fill-rule="evenodd" stroke="#000000" stroke-width="0.036" stroke-miterlimit="10" id="path25" d="m163.112,163.913086c0.440186,-1.637161 0.943237,-4.175858 2.200989,-5.601578c1.194824,-1.480042 2.766968,-3.118668 4.464905,-3.701584c1.320679,-0.792892 3.018616,-1.744354 4.4021,-0.792892c1.194824,0.898605 3.584473,4.547348 3.773193,5.814484c0.125732,0.951462 -2.20105,1.058655 -2.829956,0.528595c-0.880371,-0.792892 -1.194824,-3.330109 -1.886536,-3.964417c-0.817505,-0.740036 -1.949524,-0.792892 -3.144348,0.265762c-1.257751,0.949982 -4.150513,3.700119 -4.779358,5.814468c-0.880371,1.95578 -0.817505,4.704453 -0.314453,6.394455c0.251587,1.585785 1.069092,2.642944 2.20105,3.171539c1.069092,0.264297 3.773132,-1.215759 4.464966,-0.792877c0.503052,0.422867 0,2.431503 -1.257751,2.960098c-1.383484,0.265762 -5.533997,0.212906 -6.666016,-0.792892c-1.383484,-1.162888 -0.880371,-3.752975 -0.943237,-5.338745c-0.312683,-1.531448 -0.125793,-2.588608 0.314453,-3.964417l0,0z"/>
   <path fill-rule="evenodd" stroke="#000000" stroke-width="0.036" stroke-miterlimit="10" id="path27" d="m422.330017,168.777573c-0.253296,-1.744339 -0.503082,-4.228714 -1.257721,-5.814468c-1.006165,-1.850067 -2.326813,-3.331589 -3.710297,-4.228714c-1.25946,-0.845749 -2.829895,-2.168686 -4.213379,-1.321487c-1.63681,0.634323 -4.527863,4.228729 -4.779388,5.287369c-0.440216,1.004318 1.760803,1.374329 2.704132,0.897141c0.817535,-0.634308 1.509247,-3.222931 2.580048,-3.700134c0.817535,-0.687164 2.010651,-0.475723 3.081482,0.634308c1.069061,1.162903 3.08139,4.175842 3.6474,6.395935c0.377319,2.060028 -0.18692,4.651566 -0.754639,6.341583c-0.691772,1.375809 -1.699707,2.591568 -2.766998,2.854385c-1.259491,0 -3.710297,-1.532913 -4.213409,-1.321472c-0.628845,0.265762 -0.628845,2.431503 0.691742,3.065811c1.196594,0.37149 5.219604,0.845749 6.730591,0c1.257751,-1.004318 1.570435,-3.592926 1.886597,-5.125839c0.37384,-1.428665 0.501373,-2.537216 0.37384,-3.964417l0,0z"/>
   <path fill-rule="evenodd" stroke="#000000" stroke-width="0.036" stroke-miterlimit="10" id="path29" d="m414.78363,163.650269c-0.251526,0.52858 1.446381,2.695786 1.949493,4.228699c0.251556,1.480057 0.377289,4.017288 0.628876,4.547348c0.314423,0.264282 1.067322,-1.164368 1.257721,-2.431519c0,-1.375793 -0.754639,-4.28157 -1.257721,-5.287369c-0.691772,-1.164352 -2.515442,-1.587219 -2.578369,-1.057159l0,0z"/>
   <path fill-rule="evenodd" stroke="#000000" stroke-width="0.036" stroke-miterlimit="10" id="path31" d="m268.069489,151.122711c0,3.54155 3.395874,6.39592 7.609253,6.39592c4.213409,0 7.609253,-2.85437 7.609253,-6.39592c0,-3.488693 -3.395844,-6.341599 -7.609253,-6.341599c-4.213379,0 -7.609253,2.852905 -7.609253,6.341599l0,0z"/>
   <path fill-rule="evenodd" stroke="#000000" stroke-width="0.036" stroke-miterlimit="10" id="path33" d="m298.758087,151.387009c0,3.54155 3.395874,6.39444 7.609253,6.39444c4.150513,0 7.544647,-2.85289 7.544647,-6.39444c0,-3.488693 -3.394135,-6.343079 -7.544647,-6.343079c-4.211639,0 -7.609253,2.854385 -7.609253,6.343079l0,0z"/>
   <path fill-rule="evenodd" stroke="#000000" stroke-width="0.036" stroke-miterlimit="10" id="path35" d="m259.265381,134.364975c2.201019,-0.792892 7.67218,-1.690018 12.011322,-2.112885c3.961853,-0.581467 11.31955,-0.68718 12.640167,-0.528595c1.194855,0.158569 -0.565979,0.687164 -4.779358,1.585754c-4.464966,0.740036 -17.230927,2.748672 -20.563873,2.961578c-3.270111,0.049927 -1.572174,-1.322937 0.691742,-1.905853l0,0z"/>
   <path fill-rule="evenodd" stroke="#000000" stroke-width="0.036" stroke-miterlimit="10" id="path37" d="m308.19281,133.362122c2.138153,0.052856 8.047729,0.687164 12.137115,1.691483c4.087616,0.792892 10.688934,2.800049 12.011322,3.382965c1.004425,0.475739 -0.943329,0.634323 -5.156708,0.052856c-4.466705,-0.740021 -17.230896,-2.748642 -20.375244,-3.594406c-3.270081,-0.845734 -0.880402,-1.692947 1.383514,-1.532898l0,0z"/>
   <path fill-rule="evenodd" stroke="#000000" stroke-width="0.036" stroke-miterlimit="10" id="path39" d="m226.06308,110.368507c2.075256,0.792885 7.609253,1.532906 12.011292,2.431511c4.213409,0.740021 11.382446,1.480042 13.269073,1.58577c1.446381,-0.317162 -0.062897,-1.4272 -2.829895,-2.114365c-2.766998,-0.581444 -9.558777,-0.845741 -13.33194,-1.374329c-3.961853,-0.687164 -7.923676,-2.431503 -9.432983,-2.378647c-1.825439,-0.105721 -1.63678,1.057175 0.314453,1.85006l0,0z"/>
   <path fill-rule="evenodd" stroke="#000000" stroke-width="0.036" stroke-miterlimit="10" id="path41" d="m352.840454,101.065338c0.880432,2.431511 2.515472,6.554512 4.403809,9.303169c1.446381,2.538696 4.840485,6.184486 5.093811,5.867332c-0.062897,-0.581444 -2.139923,-5.76162 -3.83609,-9.038864c-1.949463,-3.435822 -4.842255,-10.518921 -5.974213,-11.470383c-0.880371,-1.005791 -0.693481,2.748665 0.312683,5.338745l0,0z"/>
   <path fill-rule="evenodd" stroke="#000000" stroke-width="0.036" stroke-miterlimit="10" id="path43" d="m253.858887,113.592896c0,0.422874 1.194855,0.792892 2.704132,0.792892c1.446381,0 2.704132,-0.370018 2.704132,-0.792892c0,-0.475723 -1.257751,-0.792877 -2.704132,-0.792877c-1.511047,0 -2.704132,0.317154 -2.704132,0.792877l0,0z"/>
   <path fill-rule="evenodd" stroke="#000000" stroke-width="0.036" stroke-miterlimit="10" id="path45" d="m363.721558,118.244484c-0.503082,0.211433 -0.253265,1.268608 0.440216,2.325783c0.754639,1.110039 1.697937,1.797211 2.138123,1.58577c0.440247,-0.212906 0.253326,-1.268616 -0.440186,-2.325783c-0.754639,-1.110039 -1.697937,-1.798676 -2.138153,-1.58577l0,0z"/>
   <path fill-rule="evenodd" stroke="#000000" stroke-width="0.036" stroke-miterlimit="10" id="path47" d="m239.960999,214.870514l2.829865,-1.057159l0,0c1.006195,4.864471 2.704132,9.461731 5.093811,13.796158c2.138153,4.281586 5.093781,8.404587 9.11853,11.946121c4.087646,3.330093 8.992767,6.078766 15.218536,8.245972c6.162872,2.007172 13.897919,4.651596 21.507172,4.28157c7.357727,-0.581436 16.224731,-3.701569 22.45224,-6.925964c5.911316,-3.222946 10.374512,-8.19313 13.896149,-12.474716c3.395874,-4.651566 5.219574,-10.096039 6.917511,-14.111847c1.509277,-4.017273 2.643005,-7.294525 2.892761,-9.831757l0,0l3.773224,0.264297l0,0c-1.886597,5.550186 -4.024719,10.941788 -6.665985,15.963379c-2.578308,5.127304 -5.533997,10.096069 -9.11853,14.324768c-3.710297,4.124466 -7.923676,7.135941 -13.646362,9.831741c-5.974213,2.378662 -14.463898,4.598724 -21.821594,4.81015c-7.483521,0 -15.847412,-1.110016 -22.702026,-3.964401c-7.106201,-3.012955 -14.401031,-8.245987 -18.99173,-13.056137c-4.653625,-4.757309 -6.854614,-11.577576 -8.552582,-15.170502c-1.825439,-3.752991 -2.641205,-5.973068 -2.200989,-6.871674l0,0z"/>
   <path fill-rule="evenodd" stroke="#000000" stroke-width="0.036" stroke-miterlimit="10" id="path49" d="m237.129333,214.606232c1.760834,-0.898605 3.64743,-1.321472 5.65976,-1.850067c2.075287,-0.688629 6.414429,-2.642944 6.980438,-2.168686c0.440186,0.370026 -2.263916,2.748672 -4.464966,4.281586c-2.641205,1.428635 -7.357666,3.22438 -9.810272,3.964401c-2.452576,0.422867 -5.156708,-0.105713 -4.716492,-0.792877c0.314453,-0.844299 4.213379,-2.535767 6.351532,-3.434357l0,0z"/>
   <path fill-rule="evenodd" stroke="#000000" stroke-width="0.036" stroke-miterlimit="10" id="path51" d="m345.482727,208.208832c-2.263885,-0.370026 -3.961823,-0.844269 -6.037079,-0.844269c-2.452576,-0.581451 -6.980408,-1.162903 -7.29483,-0.89859c-0.314453,0.422867 2.515442,2.325775 5.345306,3.435822c2.515472,0.951462 8.0495,1.955765 10.566711,2.167206c2.578369,0 4.714722,-1.004318 4.464935,-1.58429c-0.567719,-0.690094 -4.843994,-1.852997 -7.045044,-2.275879l0,0z"/>
   <path fill="#78605c" fill-rule="evenodd" stroke="#000000" stroke-width="0.036" stroke-miterlimit="10" id="path53" d="m220.40155,103.60257c-1.257751,3.330109 -3.395874,6.394463 -5.722687,9.77742c-2.515442,3.277252 -5.156708,5.973053 -9.11853,9.726036c-4.276306,3.488686 -11.005157,8.563133 -15.784515,11.787529c-5.030884,3.118683 -9.684509,6.025925 -13.017517,7.083084c-3.45874,0.898621 -5.84845,0 -6.91748,-1.480026c-1.194824,-1.691498 -0.377319,-4.177338 0.754639,-8.088882c1.006165,-4.015823 2.578369,-9.197456 5.911255,-15.751953c3.333008,-6.76593 8.175293,-16.54483 13.772217,-24.050797c5.345337,-7.770264 11.256653,-14.800491 18.488617,-21.302124c7.043274,-6.660225 15.092743,-12.687599 24.148376,-17.443436c8.929901,-4.757301 17.985535,-8.088882 28.864929,-10.57177c10.627808,-2.59156 24.399933,-4.175865 34.776245,-4.757317c10.124695,-0.687157 17.859741,-0.052849 26.600952,1.05719c8.426788,0.845734 17.293762,1.95578 24.904785,4.968735c7.67215,2.907234 14.902344,8.3517 20.249451,13.05761c4.905121,4.54586 6.980377,9.303169 10.627838,14.483337c3.83432,5.178703 8.175232,11.046043 11.571106,16.17482c3.144318,4.810158 4.777618,7.400246 7.357697,13.056145c2.326813,5.603043 5.596893,14.273361 7.169067,20.297821c1.383514,5.761612 1.63678,10.254608 1.699677,14.324753c-0.062897,3.911545 -0.316162,7.083084 -1.446381,9.514603c-1.383545,2.32579 -2.955658,4.387283 -5.410004,4.757294c-2.513733,0.051376 -5.47113,-0.37001 -8.865265,-3.488693c-3.6474,-3.331573 -7.357666,-9.198914 -11.384186,-15.540512c-4.024719,-6.607353 -8.047699,-14.48333 -12.325745,-22.623596c-4.527802,-8.140274 -8.866974,-16.439117 -13.772125,-25.479454l0,0c2.01059,-2.642944 3.394135,-5.814476 4.150482,-9.726036c0.627106,-4.17585 0.314453,-11.99897 0.251587,-13.901894c-0.251587,-1.744339 -0.817566,0.792885 -1.194855,3.118683c-0.565979,2.272934 -0.18866,5.920197 -1.257721,9.726036c-1.196625,3.647263 -2.515472,8.140266 -5.659821,12.051819c-3.523376,3.594414 -7.420563,6.765945 -14.338074,9.938942c-7.233734,3.065819 -18.61441,6.764473 -27.608948,8.880287c-9.055664,2.008652 -16.539124,2.642944 -25.844574,3.330124c-9.49588,0.37001 -21.318512,0.158569 -30.12265,-0.211441c-8.866974,-0.318619 -16.098938,-1.005783 -21.947357,-2.061493c-5.848419,-1.480057 -9.747406,-3.382965 -13.394806,-5.49733c-4.02478,-2.32579 -8.804138,-6.394455 -9.998962,-6.924515c-1.257751,-0.422867 1.194824,3.118668 2.515442,4.493004c1.131958,1.110039 2.766998,1.69149 4.653595,2.961571c1.884857,1.110031 4.024719,2.695801 6.664246,4.334427l0,0z"/>
   <path fill-rule="evenodd" stroke="#000000" stroke-width="0.036" stroke-miterlimit="10" id="path55" d="m187.386108,130.876282c0.817505,-1.267151 5.974304,-3.805832 8.426819,-5.548714c2.20105,-1.691483 3.521667,-2.748665 5.911285,-4.810158c2.38974,-2.32579 7.294891,-7.664536 8.615479,-8.245987c0.880402,-0.634308 0.062897,2.378647 -1.697906,4.547333c-1.886627,2.167221 -5.345398,5.33876 -8.426819,8.087402c-3.144348,2.64296 -7.483459,6.078781 -9.621582,7.241684c-2.263916,0.791412 -4.150513,-0.108658 -3.207275,-1.271561l0,0z"/>
   <path fill-rule="evenodd" stroke="#000000" stroke-width="0.036" stroke-miterlimit="10" id="path57" d="m182.229431,135.000748c0.188721,0.317154 1.194824,0.105728 2.20105,-0.475739c1.006165,-0.52858 1.63501,-1.215759 1.383545,-1.532898c-0.188721,-0.264297 -1.194885,-0.052856 -2.201111,0.475723c-1.004333,0.581451 -1.634949,1.267151 -1.383484,1.532913l0,0z"/>
   <path fill-rule="evenodd" stroke="#000000" stroke-width="0.036" stroke-miterlimit="10" id="path59" d="m219.397095,93.717957c1.8237,1.215752 7.29483,3.700119 11.822662,5.391602c4.150513,1.375801 8.992767,2.748657 14.526794,3.54155c5.533997,0.634308 16.476227,0.898605 18.991699,0.792877c2.389679,-0.264282 -1.257721,-1.004318 -4.403778,-1.427185c-3.395874,-0.37001 -10.376282,-0.581444 -14.841248,-1.05864c-4.653595,-0.844284 -8.363892,-1.797211 -11.822632,-2.852921c-3.458771,-1.05864 -6.162872,-2.168678 -8.363922,-3.118668c-2.326813,-1.005783 -4.213379,-2.642944 -5.156677,-2.695801c-1.069061,-0.26577 -2.704132,0.211426 -0.752899,1.427185l0,0z"/>
   <path fill-rule="evenodd" stroke="#000000" stroke-width="0.036" stroke-miterlimit="10" id="path61" d="m240.085022,95.779449c0.251526,0.845749 2.201019,3.805847 3.45874,5.178711c1.131927,1.321472 2.766998,2.378639 3.207184,2.32579c0.18866,-0.264297 -1.257721,-2.32579 -1.949463,-3.54155c-1.006195,-1.32 -1.82373,-3.592934 -2.704102,-4.175858c-0.817566,-0.738556 -2.387939,-0.738556 -2.01236,0.212906l0,0z"/>
   <path fill-rule="evenodd" stroke="#000000" stroke-width="0.036" stroke-miterlimit="10" id="path63" d="m235.179871,97.0466c-0.125763,0.52858 1.006165,2.114349 1.949463,3.118668c0.754639,0.792892 2.955688,2.431511 3.207214,2.274399c0.18866,-0.318619 -1.509277,-2.644409 -1.949463,-3.541542c-0.440186,-0.951454 -0.943329,-1.902916 -1.257751,-2.061493c-0.565948,-0.37001 -2.01062,-0.37001 -1.949463,0.209969l0,0z"/>
   <path fill-rule="evenodd" stroke="#000000" stroke-width="0.036" stroke-miterlimit="10" id="path65" d="m293.351593,99.268143c3.836121,-1.638626 15.847412,-4.651588 22.701996,-7.030228c6.728882,-2.378654 12.638489,-4.810173 17.7323,-7.083099c4.779388,-2.48436 8.804077,-4.968735 11.824371,-6.818794c3.018555,-2.114357 4.905121,-3.701591 6.414398,-4.334435c1.383545,-0.475723 2.452606,-0.212891 1.760864,1.004326c-0.943329,1.005783 -4.150513,3.065811 -6.917511,4.968735c-2.829926,1.691483 -6.03714,3.701576 -10.124756,5.814476c-4.276276,2.061493 -9.936066,4.810158 -15.281403,7.030235c-5.596893,2.061493 -12.640198,4.124458 -17.482422,5.603043c-5.030914,1.32 -9.873169,2.695808 -11.634033,2.905769c-1.888336,0.054321 -3.020264,-0.632843 1.006195,-2.060028l0,0z"/>
   <path fill-rule="evenodd" stroke="#000000" stroke-width="0.036" stroke-miterlimit="10" id="path67" d="m294.859131,64.645569c3.207214,-0.581444 10.816467,-1.057182 17.985535,-1.215752c7.041534,-0.26429 16.224701,-0.26429 23.142212,0.211433c6.601349,0.318626 13.646393,1.481522 16.539154,2.274399c2.704132,0.740021 1.8237,2.112892 0.251526,2.272942c-1.697906,0 -5.720917,-1.428673 -10.374481,-1.851532c-4.968048,-0.474266 -12.264648,-0.897141 -18.237091,-0.844284c-6.037109,0 -12.262909,0.211449 -17.230896,0.634308c-5.280701,0.158585 -10.374542,0.687164 -12.577301,0.581451c-1.951202,-0.265762 -2.829926,-1.640091 0.501343,-2.062965l0,0z"/>
   <path fill-rule="evenodd" stroke="#000000" stroke-width="0.036" stroke-miterlimit="10" id="path69" d="m301.715515,45.773483c3.394104,1.005783 18.42572,2.591553 26.663849,4.9702c8.175262,2.377182 18.237091,8.087402 22.452209,9.567459c4.02475,1.268616 3.394135,-0.317154 2.20105,-1.268616c-1.383484,-1.215759 -5.156708,-2.801521 -9.621643,-4.757301c-4.653625,-2.06002 -11.384216,-4.598717 -17.293762,-6.394455c-6.2258,-1.85006 -14.338135,-3.382973 -18.488647,-3.752983c-4.153992,-0.424339 -9.436462,0.527122 -5.913055,1.635696l0,0z"/>
   <path fill-rule="evenodd" stroke="#000000" stroke-width="0.036" stroke-miterlimit="10" id="path71" d="m360.638336,65.491318c1.069122,1.637146 7.357788,6.237335 10.124786,9.303154c2.829865,2.960106 4.716461,7.081627 6.416168,8.510277c1.257721,1.320007 2.953888,1.110046 2.201019,-0.422867c-0.943298,-1.691475 -3.898956,-6.290199 -6.665955,-9.303154c-2.829956,-3.118683 -7.544647,-7.45311 -9.558746,-8.721725c-2.20105,-1.480049 -3.774933,-1.057175 -2.517273,0.634315l0,0z"/>
   <path fill-rule="evenodd" stroke="#000000" stroke-width="0.036" stroke-miterlimit="10" id="path73" d="m361.394775,77.278839c1.194824,0.845749 5.280701,5.86734 7.67215,9.568932c2.139862,3.592934 3.773193,8.615997 4.90686,11.576103c0.691742,2.48436 0.440216,4.334419 0.251556,4.968727c-0.251556,0.951462 -0.251556,1.162895 -1.006165,-0.211433c-0.817535,-1.691483 -2.138153,-6.290207 -3.710297,-9.726044c-2.01062,-3.647263 -5.345367,-8.933151 -6.854614,-11.57756c-1.512787,-2.907227 -2.265686,-5.393074 -1.259491,-4.598724l0,0z"/>
   <path fill-rule="evenodd" stroke="#000000" stroke-width="0.036" stroke-miterlimit="10" id="path75" d="m384.096771,133.679276c0.880432,1.638626 4.150543,6.501633 6.414459,8.880295c1.949463,2.061493 4.087585,3.38443 5.65802,3.964417c1.446381,0.317154 2.515442,-0.792877 2.705872,-1.057175c-0.062897,-0.317169 -1.762573,-0.052872 -2.705872,-0.635788c-1.194855,-0.740021 -2.513702,-1.902908 -3.708557,-3.275772c-1.383514,-1.58577 -2.955658,-3.858704 -3.963593,-5.391617c-1.194824,-1.480042 -2.01236,-3.065811 -2.704132,-3.331573c-1.006165,-0.527115 -2.389648,-0.792877 -1.696198,0.847214l0,0z"/>
   <path fill-rule="evenodd" stroke="#000000" stroke-width="0.036" stroke-miterlimit="10" id="path77" d="m400.131104,145.202515c0.314423,0.264297 1.257721,-0.105728 2.138123,-0.792877c0.880432,-0.688644 1.320648,-1.428665 1.006195,-1.691483c-0.251556,-0.264297 -1.194855,0.105713 -2.075256,0.792877c-0.880432,0.687149 -1.320618,1.427185 -1.069061,1.691483l0,0z"/>
   <path fill-rule="evenodd" stroke="#000000" stroke-width="0.036" stroke-miterlimit="10" id="path79" d="m350.829834,51.748001c0.18692,-2.272934 1.884857,-6.871651 2.450836,-10.360344c0.377319,-3.488693 -1.006195,-8.088882 -0.503113,-9.938942c0.316193,-1.797195 1.949493,-2.22007 2.705902,-1.268608c0.501312,0.845749 1.004425,3.118668 1.004425,6.025909c-0.062866,2.801521 -0.314453,7.558823 -1.004425,10.571777c-0.819305,2.852913 -2.202789,5.867332 -2.955688,6.818802c-0.817505,0.687164 -1.951233,0.265762 -1.697937,-1.848595l0,0z"/>
   <path fill-rule="evenodd" stroke="#000000" stroke-width="0.036" stroke-miterlimit="10" id="path81" d="m356.990967,53.386627c1.572205,-1.955772 7.357697,-5.867332 10.564911,-8.880295c3.083221,-3.277252 5.47287,-6.450249 7.67392,-9.726036c1.8237,-3.488686 3.207214,-8.776039 4.402039,-10.148903c1.131958,-1.480049 3.333008,-0.105721 2.955658,2.272926c-0.691742,2.431519 -3.395874,7.928841 -6.162872,12.210403c-2.704071,4.068672 -7.357697,9.090263 -10.311615,11.99897c-3.208954,2.748665 -6.980438,4.545868 -8.426788,4.968735c-1.701447,0.157112 -2.265686,-0.740021 -0.695251,-2.695801l0,0z"/>
   <path fill-rule="evenodd" stroke="#000000" stroke-width="0.036" stroke-miterlimit="10" id="path83" d="m364.601959,57.351044c1.320648,-1.268616 4.590729,-4.28157 8.363922,-5.393074c3.521667,-1.162903 11.445374,-1.637161 13.581726,-1.427185c2.01239,0.158569 0.628845,1.798668 -1.257721,2.484367c-2.138123,0.527122 -7.67215,-0.370026 -10.564911,0.792877c-3.081482,0.949989 -5.47113,4.438683 -7.169098,5.391609c-1.760803,0.792885 -2.829865,0.052856 -3.207214,-0.212906c-0.627106,-0.314217 -1.194794,-0.578514 0.253296,-1.635689l0,0z"/>
   <path fill-rule="evenodd" stroke="#000000" stroke-width="0.036" stroke-miterlimit="10" id="path85" d="m249.077759,282.159882c1.697968,1.005768 6.100037,3.118683 10.313416,4.494476c4.087616,1.267151 9.49585,2.377197 14.023651,3.118652c4.402039,0.581482 10.061859,1.214294 11.885559,1.05719c1.509277,-0.264282 -0.125793,-1.585754 -2.515442,-2.114319c-2.892792,-0.634338 -8.363922,-0.740051 -12.765961,-1.532959c-4.527832,-1.057159 -9.370087,-2.852905 -12.828857,-3.964355c-3.45874,-1.320038 -6.540192,-2.905823 -7.797913,-3.118713c-1.383514,-0.160034 -2.138153,0.789948 -0.314453,2.060028l0,0z"/>
   <path fill-rule="evenodd" stroke="#000000" stroke-width="0.036" stroke-miterlimit="10" id="path87" d="m289.073578,289.295837c-0.314453,0 -1.006195,0.634308 -0.628876,1.110016c0.125763,0.211456 1.131958,1.004333 1.572174,0.951477c0.440186,-0.105743 0.817505,-1.268585 0.880402,-1.481537c-0.377319,-0.474243 -1.320618,-0.738525 -1.8237,-0.579956l0,0z"/>
   <path fill-rule="evenodd" stroke="#000000" stroke-width="0.036" stroke-miterlimit="10" id="path89" d="m244.424164,277.191162c-0.565948,0.105713 -0.880402,0.687134 -0.691742,1.162872c-0.062866,0.211456 1.194855,1.004364 1.572144,0.951477c0.377319,-0.1586 0.943329,-1.21579 0.943329,-1.534393c-0.37735,-0.474243 -1.320618,-0.73999 -1.82373,-0.579956l0,0z"/>
   <path fill="#294b70" fill-rule="evenodd" stroke="#000000" stroke-width="0.036" stroke-miterlimit="10" id="path91" d="m182.481018,301.189087c-7.420654,1.42865 -14.275269,3.541565 -21.066956,6.343048c-6.917542,2.482941 -13.646423,5.338776 -19.18042,9.990326c-5.596863,4.598755 -9.055664,8.351746 -13.520569,18.183472c-4.716553,9.884613 -10.753601,27.116608 -13.772156,40.701355c-3.081421,13.479034 -3.710327,27.063721 -4.087646,39.538422c-0.440186,12.369019 0.503113,24.632233 1.635071,34.146881c0.880432,9.356018 1.446411,14.906189 4.087646,21.777832c2.452576,6.660187 7.043274,12.263275 11.067993,18.65921c3.83606,6.238831 7.420593,11.57608 12.451538,19.083496c4.842224,7.505951 10.502075,15.857697 16.979309,25.636627l0,0c4.464966,-5.127319 9.055725,-9.513184 13.52063,-12.948975c4.464905,-3.541565 8.238098,-5.973145 13.269043,-7.928894c4.779297,-2.167175 9.998962,-3.75296 15.658691,-4.757294l0,0c-1.44635,-4.808655 -3.27002,-11.100342 -6.225769,-19.083527c-2.8927,-8.140228 -8.615417,-20.879272 -11.067993,-28.649506c-2.704102,-7.82312 -3.270142,-14.060425 -4.590698,-17.707703c-1.383484,-3.647308 -0.943298,-3.330139 -3.773193,-4.123047c-3.333008,-1.004303 -12.325745,-1.321442 -14.086548,-1.79718c-1.697937,-0.740021 2.012329,-1.902924 4.590698,-2.061493c2.641235,-0.105713 8.112366,0.740021 10.564941,0.687164c2.01239,-0.369995 1.697937,-0.105743 2.452576,-2.484375c0.565979,-2.590088 0.943298,-8.985992 1.886536,-12.47467c0.817566,-3.541534 2.075317,-6.02594 3.773254,-8.668884c1.572144,-2.85434 4.464966,-5.497284 6.225708,-7.928802c1.572205,-2.537231 3.144348,-4.810181 4.024719,-7.030273l0,0c-1.634949,-1.162842 -3.395874,-2.801514 -4.590637,-5.127258c-1.509277,-2.431519 -3.584595,-7.558838 -3.521667,-8.668884c-0.062927,-1.110016 2.326843,0.792908 3.521667,2.272949c1.131897,1.532898 1.320557,4.545837 3.270081,6.395935c1.886597,1.585754 5.534058,2.378632 7.546326,3.171509c1.509338,0.528564 0.943329,0.634308 2.704132,0.898621c1.697937,0.211395 7.797974,-0.105713 8.363922,0.475708c0.314423,0.475739 -2.955658,2.11438 -5.408203,2.484375c-2.452576,0.1586 -5.596985,0 -9.181458,-0.89859l0,0c-0.880432,3.171539 -2.389709,6.184479 -4.276306,8.827423c-2.075195,2.484375 -5.722656,3.964447 -7.2948,7.083099c-1.635071,3.171539 -1.886597,8.245972 -2.20105,11.576111c-0.565918,2.960052 -0.18866,5.391571 -0.817505,7.294495c-0.817505,1.79718 -3.018555,2.960114 -3.207275,4.281586c-0.251465,1.162872 1.194885,0.317169 2.138184,3.171539c0.565979,2.69577 0.817566,7.030212 2.704163,13.214691c1.886597,5.973083 6.225708,16.069122 8.929871,22.940765c2.389648,6.713074 4.464905,12.633301 6.225708,17.549133c1.509338,4.810181 3.018585,8.406036 3.773254,11.364685c0.691681,2.905762 0.691681,4.81015 0.251495,5.920197l0,0c-0.817474,1.480042 -0.125732,2.800049 1.383514,4.755798c1.509247,1.798645 5.65979,3.437317 8.112366,5.920227c2.01236,2.272949 3.6474,4.704468 5.65979,8.140259c2.01236,3.331543 4.653595,8.56311 6.728851,12.05188c1.949463,3.435791 4.716461,5.497314 5.408234,8.193115c0.440186,2.538696 0.691742,5.550171 -1.886597,6.82019c-2.578369,1.004395 -7.169067,0.844299 -13.520599,-0.475647l0,0c2.704132,1.79718 3.898987,3.275696 4.339172,5.231506c0.314423,1.851563 0.062897,4.07019 -2.704102,5.444519c-2.892792,1.11145 -7.67218,1.638611 -14.589691,1.585693l0,0l0.251587,10.941833l0,0c2.012299,-0.264282 4.464935,-0.264282 7.860779,0c3.270081,0.264282 7.231934,0.792847 11.885559,1.585815l0,0l0,15.434692l0,0c9.558746,-0.581421 17.859772,-0.949951 25.154572,-0.897095c7.169067,-0.052856 12.640228,0.845703 17.859772,0.687134c4.968018,-0.317139 7.67215,0.898682 12.95462,-2.272888c5.345337,-3.435852 11.571106,-8.933167 18.928802,-17.284912l0,0c-4.716461,-11.89325 -7.735016,-24.57782 -9.747375,-38.638367c-2.075256,-14.166138 -2.704132,-30.393799 -1.886597,-45.194305c0.817535,-14.906189 2.892792,-29.3367 6.477295,-43.714355l0,0c-6.603088,-4.704376 -13.080414,-10.254578 -19.431915,-16.861908c-6.414459,-6.660248 -11.822662,-13.267609 -18.928833,-22.676483c-7.420593,-9.567474 -15.218536,-20.932159 -24.337067,-34.30542l0,0c0.691742,-4.228699 1.131958,-8.034576 1.320618,-11.628967c0.062897,-3.700104 0.062897,-6.76593 -0.251556,-9.7789l0,0c-3.83606,0.792908 -7.169037,0.898621 -10.250488,0.317169c-3.018555,-0.687195 -5.722687,-1.850067 -8.112366,-4.122986c-2.641205,-2.484406 -5.09375,-6.02594 -7.609283,-10.201782c-2.641235,-4.387299 -4.779358,-8.72171 -8.112305,-15.434784c-3.519897,-6.927429 -7.67041,-14.910583 -12.703064,-24.952332l0,0z"/>
   <path fill="#294b70" fill-rule="evenodd" stroke="#000000" stroke-width="0.036" stroke-miterlimit="10" id="path93" d="m420.317657,296.32608c5.722656,0.211426 11.50824,1.215729 17.608215,2.801483c6.162872,1.374359 12.891724,2.960144 18.237091,6.764496c4.777618,3.752991 7.607483,8.457428 11.885529,16.546295c4.464935,8.033081 9.810272,21.776398 14.338104,31.873901c4.339172,10.043213 8.867004,20.562134 11.382446,28.120941c2.265656,7.294525 2.580139,10.148926 2.643005,16.54483c-0.18866,6.290161 -0.37735,11.206085 -2.955658,22.095032c-2.766998,10.941772 -8.867035,30.499573 -12.514435,43.397125c-3.773193,12.897583 -5.974213,20.984955 -9.30719,33.036774c-3.331238,11.840424 -6.980377,24.209351 -10.690704,37.688416l0,0c-2.075256,-4.704407 -5.280701,-9.090271 -9.871429,-13.584717c-4.590698,-4.545898 -11.50824,-9.990326 -17.358429,-13.056122c-6.037079,-3.277283 -15.281372,-3.013 -18.488617,-5.761658c-3.270081,-2.85437 -2.075226,-5.710236 -1.507538,-10.784668c0.37735,-5.285919 1.570435,-13.267609 3.584534,-20.086395c1.635071,-6.818787 4.02475,-13.743317 6.917542,-20.562103c2.953888,-7.135956 9.181427,-16.121948 10.690674,-20.826416c1.257751,-4.651581 -0.756348,-4.81015 -2.642944,-7.030212c-2.010651,-2.431519 -6.03537,-4.704468 -8.678375,-7.030212c-2.892761,-2.431549 -6.037048,-4.757294 -7.735016,-6.977417c-1.697937,-2.220062 -2.263916,-4.122955 -2.389679,-6.501617c-0.18692,-2.695801 1.006165,-7.717407 0.880402,-8.774567c-0.377319,-1.21579 -2.513733,0.475708 -3.018524,2.220062c-0.503143,1.638611 -0.062897,5.338776 -0.880432,7.82312c-1.25946,2.272919 -4.026459,3.488678 -5.65976,6.501617c-1.697937,2.854401 -3.64743,9.408875 -3.899017,11.311829c-0.18689,1.691467 1.259491,1.110016 2.38974,-0.528595c0.880402,-1.850098 1.572144,-7.347382 3.020264,-9.778931c1.194855,-2.484344 2.953918,-3.91153 4.777649,-4.492981l0,0c1.259491,2.642975 2.955658,4.863037 5.347076,7.241669c2.20105,2.325775 6.037109,4.228729 8.363892,6.290192c2.138153,1.638641 4.590729,2.748688 5.408264,4.757294c0.628876,1.95578 0.754608,3.594391 -0.628876,7.558838c-1.570404,3.964417 -5.280731,10.677521 -7.735046,16.280548c-2.452576,5.391632 -4.653564,9.567474 -6.603088,16.809143c-2.075256,7.347382 -4.653564,20.350647 -5.345337,26.376556c-0.691742,5.655884 -0.253265,6.448792 0.56601,8.510284c0.564178,2.114349 1.383453,3.171539 2.704071,3.752991l0,0c-1.259491,1.63858 -3.144287,3.224365 -5.409943,4.547333c-2.513733,1.21579 -6.03537,1.427185 -8.615479,3.488678c-2.704102,2.112915 -3.773193,5.920166 -6.603088,8.774597c-3.08139,2.642944 -8.615448,4.175842 -10.751831,7.030212c-2.263916,2.748657 -2.580109,6.44873 -2.389679,9.038879c-0.062897,2.272888 0.754608,4.015808 2.704132,5.021545c2.01236,0.950073 4.590668,0.845825 8.678314,0.264343l0,0c0,0.792908 -0.880402,1.480042 -2.389709,2.484314c-1.886536,0.740112 -5.974182,1.480103 -7.169067,3.012939c-1.25769,1.585815 -1.006104,4.22876 0,6.290283c1.006195,1.902954 2.953979,4.122986 5.345398,5.021606c2.202759,0.687134 4.779388,0.052856 7.483521,-0.264343c2.580048,-0.369995 5.093781,-1.110046 7.797882,-2.008606l0,0c0.377319,3.012939 1.196594,5.021606 2.955658,6.025879c1.697937,0.845703 4.716492,0.581482 6.854645,0c1.949493,-0.634277 3.64743,-1.79718 5.093811,-3.488647l0,0c0.880402,0.688599 2.138153,1.268616 3.270081,1.744324c1.257721,0.475769 2.389709,0.740051 3.898956,1.004333l0,0c-0.819244,4.96875 -1.446381,9.726013 -2.389679,14.060425c-0.943268,4.387329 -0.819275,8.351746 -3.020294,11.893311c-2.389679,3.277222 -3.45697,6.025879 -10.753571,8.03595c-7.607574,1.79718 -20.876587,2.960144 -33.707184,3.275818c-12.95459,0.265747 -31.317444,0.052856 -42.698151,-1.26709c-11.31958,-1.321533 -19.494843,-3.647339 -24.779022,-6.765991l0,0c-4.779388,-8.668823 -8.426819,-18.712036 -11.634003,-30.129517c-3.270111,-11.734741 -6.225769,-24.896606 -7.169098,-38.639893c-1.069061,-13.796173 -0.188599,-30.60675 1.194885,-42.6586c1.131958,-12.051819 3.395844,-21.830688 6.288635,-29.33667l0,0c5.84845,-2.85437 12.137085,-6.713104 19.115723,-11.787567c6.917511,-5.180145 14.841217,-11.787476 22.074921,-18.817719c7.169037,-7.135956 13.581726,-16.38623 19.996185,-23.680817c6.162842,-7.347382 11.384186,-14.271851 16.413361,-20.562103l0,0c-2.075256,-6.343048 -3.64743,-11.100372 -4.464966,-15.064758c-0.880402,-3.91153 -1.259491,-6.660187 -0.880402,-8.246002l0,0c5.4711,0.052856 10.248749,-0.951477 14.589661,-2.801514c4.150513,-1.902893 7.043304,-3.805847 11.067993,-8.774597c3.961884,-5.338745 8.238159,-14.536163 12.828857,-22.094971c4.466705,-7.664551 9.244293,-15.170532 14.338135,-23.152191l0,0z"/>
   <path fill-rule="evenodd" stroke="#000000" stroke-width="0.036" stroke-miterlimit="10" id="path95" d="m297.374573,488.043732c0.56601,4.493042 4.150513,7.824646 7.986572,7.505981c3.836121,-0.369995 6.540222,-4.281555 5.974243,-8.774536c-0.565979,-4.440186 -4.150513,-7.82312 -8.0495,-7.453125c-3.83606,0.318604 -6.475525,4.228699 -5.911316,8.72168l0,0z"/>
   <path fill="#294b70" fill-rule="evenodd" stroke="#000000" stroke-width="0.036" stroke-miterlimit="10" id="path97" d="m299.512726,488.625183c0.377289,2.801575 2.641235,4.915924 5.095551,4.704498c2.387939,-0.211426 4.087616,-2.695801 3.710297,-5.497314c-0.316162,-2.85437 -2.580109,-4.968781 -5.032684,-4.757355c-2.452545,0.265778 -4.087616,2.697296 -3.773163,5.550171l0,0z"/>
   <path fill-rule="evenodd" stroke="#000000" stroke-width="0.036" stroke-miterlimit="10" id="path99" d="m296.745697,533.239563c0.56601,4.440186 4.150513,7.823181 7.986603,7.453186c3.898987,-0.3172 6.540161,-4.22876 5.974243,-8.720337c-0.56427,-4.494385 -4.150513,-7.82312 -7.986603,-7.505981c-3.898987,0.368652 -6.538422,4.280151 -5.974243,8.773132l0,0z"/>
   <path fill="#294b70" fill-rule="evenodd" stroke="#000000" stroke-width="0.036" stroke-miterlimit="10" id="path101" d="m298.948517,533.768188c0.314423,2.85437 2.578308,4.96875 5.030914,4.757324c2.452545,-0.265808 4.087585,-2.695801 3.773163,-5.550171c-0.377319,-2.801514 -2.642975,-4.915894 -5.095581,-4.704468c-2.389648,0.211426 -4.087585,2.695801 -3.708496,5.497314l0,0z"/>
   <path fill="#e0e0e0" fill-rule="evenodd" stroke="#000000" stroke-width="0.036" stroke-miterlimit="10" id="path103" d="m448.36676,530.226624c0.061188,-0.211365 0.37735,-0.634338 1.194855,-1.268616c0.691742,-0.634277 1.697937,-1.47998 3.020294,-2.53717l0,0c1.82373,1.744324 3.394135,3.488647 4.464966,5.021545c1.006165,1.532959 1.697876,2.960083 2.075256,4.281616l0,0c-2.891052,-0.528625 -5.093842,-1.480103 -6.854645,-2.272949c-1.827209,-0.845764 -3.210693,-2.11438 -3.900726,-3.224426l0,0z"/>
   <path fill="#e8ccba" fill-rule="evenodd" stroke="#000000" stroke-width="0.036" stroke-miterlimit="10" id="path105" d="m416.733124,506.122986c-1.383514,1.850037 -3.457001,3.224396 -5.974243,4.757294c-2.578308,1.374359 -7.546356,1.797211 -9.558716,3.541534c-2.263916,1.638611 -1.762573,4.122986 -3.586273,6.237366c-2.075256,1.902954 -6.161163,3.964478 -8.363892,5.761658c-2.387909,1.638611 -4.150543,2.905701 -5.030914,5.021545c-1.130249,2.061523 -1.446411,5.444458 -0.943329,7.294556c0.379059,1.532837 1.572205,2.591553 3.586334,2.748657c1.886536,0.212891 4.967987,0 7.797913,-1.480103c2.578339,-1.744263 5.596863,-5.444458 8.047699,-8.034485c2.139893,-2.748718 5.156708,-7.188904 5.65979,-7.030273c0.314392,0.211487 -1.320618,5.497375 -2.953918,8.297424c-1.949524,2.644409 -4.152283,5.444458 -6.603119,7.770264c-2.326782,2.221558 -4.527802,3.91156 -6.854584,5.287354c-2.515472,1.215698 -5.787323,1.585754 -7.169067,2.748657c-1.381744,1.162842 -1.446411,3.065796 -0.880432,4.492981c0.314453,1.375793 2.01239,3.382935 3.898956,4.017273c1.886597,0.5271 4.527832,0.105713 7.420593,-0.475769c2.641266,-0.73999 5.534058,-1.532898 8.678375,-4.017273c3.144318,-2.695801 7.797913,-10.096069 9.871429,-11.786011c1.699677,-1.744385 1.699677,-0.105713 1.196564,1.215698c-0.691742,1.057251 -2.766998,3.5401 -4.527802,5.814575c-1.82373,2.325684 -3.898987,4.915771 -6.225769,7.981567l0,0c-0.125793,1.797241 0.440216,3.065918 1.446381,4.017334c1.006195,0.950012 2.766998,1.585754 4.527863,1.267151c1.572144,-0.687195 3.27005,-2.112915 5.347046,-4.281555c1.947754,-2.220093 4.714752,-5.865845 6.601349,-8.510254c1.63678,-2.960144 2.829895,-6.71167 3.83609,-7.770325c1.069061,-1.05719 2.515472,0 2.389679,1.744324c-0.503082,1.532959 -2.892792,5.074463 -4.464935,7.770264c-1.63681,2.484375 -3.146057,5.074463 -4.779358,7.557373l0,0c1.570404,1.585754 3.457001,2.431519 5.65976,2.748657c2.138123,0.105713 4.840515,-0.104248 7.169067,-1.267151c2.01239,-1.268616 4.464905,-3.277161 5.65979,-6.025879c0.817535,-3.013 0.880402,-8.193115 1.194824,-11.258972c0.37735,-3.171509 -0.062897,-4.81012 1.8237,-7.557312c1.82373,-2.907288 5.093842,-6.237366 9.560486,-9.778931l0,0c-4.213348,-4.81012 -8.301025,-8.721741 -12.264587,-11.524719c-4.087616,-3.012939 -8.047729,-4.385803 -11.634033,-5.548706c-3.521606,-1.27005 -6.791718,-1.851532 -9.558716,-1.745789l0,0z"/>
   <path fill="#e8ccba" fill-rule="evenodd" stroke="#000000" stroke-width="0.036" stroke-miterlimit="10" id="path107" d="m168.081726,528.429443c1.006165,1.585815 1.886597,3.541565 2.641235,6.290161c0.565918,2.695801 1.320618,6.288818 1.509277,9.567505c-0.125793,3.224365 -0.251526,6.607361 -0.628906,9.514526c-0.314453,2.59021 -1.25769,4.545898 -0.880371,6.501709c0.188721,1.902893 1.194824,3.435791 3.018494,4.808716c1.760925,1.268616 4.339233,2.114319 7.735107,2.748657l0,0c0.314453,-5.70874 1.132019,-10.307495 2.704102,-14.58905c1.509277,-4.228699 4.339111,-9.356079 6.540222,-10.518921c2.075256,-1.162903 4.150513,0.528564 5.974182,3.012939c1.446472,2.220032 3.144287,7.243103 3.899017,10.783264c0.754608,3.488647 1.131927,6.925903 0.880371,10.308899l0,0c2.641235,0.634277 5.030884,0.950012 7.169067,0.73999c2.012329,-0.317139 4.779388,-0.634216 5.65976,-1.744324c0.628876,-1.319946 0.440216,-3.012939 -0.565979,-5.285889c-1.006165,-2.325806 -3.270081,-6.184509 -5.093781,-8.298828c-1.949493,-2.325806 -4.213379,-3.700134 -6.540192,-4.755859l0,0c0.314423,-2.272888 -0.18869,-4.757263 -1.509247,-7.243164c-1.446442,-2.642883 -5.408295,-6.341553 -6.540253,-8.034546c-1.44635,-1.849976 -1.572144,-3.171509 -0.628845,-2.53717c1.006226,0.474304 5.09375,3.013 7.169098,5.761597c1.823669,2.748657 3.395813,5.971619 4.464935,10.307556l0,0c2.955627,2.961548 5.4711,5.232971 7.797882,7.030151c2.138123,1.691528 3.6474,2.642944 5.974213,3.277222c2.263916,0.527161 7.043304,1.214355 8.0495,0c0.754608,-1.428589 -0.691803,-4.917297 -2.389709,-8.03595c-1.949493,-3.222961 -5.596893,-7.451721 -7.797943,-11.046082c-2.075256,-3.805786 -2.263916,-7.875977 -4.464935,-10.571716c-2.578308,-2.643005 -7.231964,-2.960144 -9.558777,-5.233093c-2.138123,-2.377136 -3.647339,-5.231567 -3.83606,-8.774536l0,0c-5.28241,0.369995 -10.376282,1.797241 -15.532959,4.493042c-5.093811,2.69574 -10.252197,6.395874 -15.218506,11.523193l0,0z"/>
   <path fill="#e0e0e0" fill-rule="evenodd" stroke="#000000" stroke-width="0.036" stroke-miterlimit="10" id="path109" d="m158.206787,540.269775c1.069031,-2.852905 2.263916,-4.968689 3.584534,-6.554443c1.257751,-1.585754 2.641296,-2.590088 4.150513,-3.012939l0,0c0.754639,0.634277 1.446411,1.480042 1.82373,2.53717c0.251526,0.951477 0.440186,2.114441 0.314392,3.488708l0,0c-1.635071,1.058716 -3.144287,1.904419 -4.779358,2.538696c-1.63501,0.634338 -3.331177,0.897095 -5.093811,1.002808l0,0z"/>
   <path fill="#77605b" fill-rule="evenodd" stroke="#000000" stroke-width="0.036" stroke-miterlimit="10" id="path111" d="m184.556274,580.442627c-0.125793,-5.867371 -0.125793,-10.83606 0,-15.117737c-0.062988,-4.440125 -0.125793,-7.558777 0.817505,-10.783142c0.943298,-3.38446 3.333008,-7.983154 5.219604,-8.933167c1.697876,-0.951477 3.584534,-0.635803 5.156616,3.222961c1.320618,3.858643 2.641296,13.743286 3.270142,19.24054c0.503052,5.338806 0.503052,9.250366 0,12.369019l0,0l-4.905151,0l0,0c0.503113,-2.167236 0.503113,-3.858704 0.251526,-5.285889c-0.565918,-1.638611 -1.383484,-2.697327 -2.452576,-2.961548c-1.131958,-0.157104 -3.207153,0.792908 -3.773193,2.272888c-0.817505,1.321533 -1.006165,3.17157 -0.565979,5.763062l0,0c-1.004395,0.054382 -2.012329,0.1073 -3.018494,0.213013l0,0z"/>
   <path fill="#77605b" fill-rule="evenodd" stroke="#000000" stroke-width="0.036" stroke-miterlimit="10" id="path113" d="m165.187256,586.627075c4.653564,-1.110046 9.935974,-2.008667 15.847351,-2.484375c5.911316,-0.73999 12.577271,-1.05719 19.054596,-0.950012c6.351501,0.157104 12.137085,0.845764 18.299957,2.061584l0,0c-1.131958,11.628906 -2.326813,25.423584 -3.584534,42.604248c-1.572144,17.126221 -3.332977,44.82428 -4.339142,59.043335c-0.943329,13.796143 -1.069061,15.329102 -1.383514,24.36792c-0.56601,9.091797 -1.194885,18.817749 -1.886566,29.813904l0,0c-8.300995,0.5271 -15.847382,0.634277 -22.890717,0.897156c-7.169067,0.105713 -13.394836,0.105713 -19.369019,0l0,0c-1.697937,-25.370789 -2.704163,-46.885803 -3.270081,-65.75647c-0.503113,-18.976379 -0.251526,-36.524048 0,-46.302979c-0.125793,-9.673096 -0.943298,-4.281555 -0.251526,-11.364624c0.565979,-7.243164 1.823669,-17.816406 3.773193,-31.929688l0,0z"/>
   <path fill-rule="evenodd" stroke="#000000" stroke-width="0.036" stroke-miterlimit="10" id="path115" d="m189.650085,590.062927c-2.138123,12.897522 -3.773254,27.539429 -5.156799,44.561462c-1.697876,16.914856 -2.955627,39.221375 -3.27002,56.5047c-0.251587,17.284851 0.314392,32.34967 1.949463,46.198608l0,0c0.565979,-35.519653 1.509277,-64.857788 2.578308,-89.648621c1.007996,-24.68512 2.389709,-43.608582 3.899048,-57.61615l0,0z"/>
   <path fill="#294b70" fill-rule="evenodd" stroke="#000000" stroke-width="0.036" stroke-miterlimit="10" id="path117" d="m297.24884,583.032715c-2.829926,3.541504 -5.974243,6.765869 -9.433014,9.46167c-3.584503,2.801514 -6.477295,5.285889 -11.822632,6.818848c-5.722687,1.215698 -12.703094,0.635742 -20.689667,0.89856c-7.923706,0.105713 -20.878296,-0.369995 -26.47522,0c-5.785522,0.158569 -8.238129,0.73999 -7.609253,1.532898l0,0c-1.63504,11.524719 -2.766998,22.41217 -3.64743,33.512512c-1.006165,10.99469 -1.131927,21.566467 -1.823669,32.138245c-0.817535,10.413208 -1.697937,20.192078 -2.641266,29.970947l-0.251526,0.264282c2.829865,13.003357 5.219574,23.469421 7.29483,31.926819c2.075256,8.457397 3.333008,13.53186 5.030945,18.289124c1.572113,4.757324 3.08139,7.613159 4.716461,9.939026c1.572174,2.272888 2.326782,2.905701 4.968048,3.75293c2.578308,0.845703 8.175232,0.792908 10.502014,1.321472c2.263947,0.474304 3.521667,1.214294 3.144318,1.532959c-0.440186,0.317078 -3.332977,0.422852 -5.534027,0.422852c-2.200989,0.051392 -4.716461,0 -7.609253,-0.212891c1.509277,5.814453 2.892792,11.998901 4.213409,18.976257c1.320648,6.924561 2.704132,13.954834 3.64743,22.253601c0.943268,8.298828 1.509277,18.923523 2.138123,27.116699c0.56601,8.193054 1.257751,14.64325 1.572144,21.566406c0.18866,6.977417 -0.314392,14.007568 0,19.874939c0.251556,5.814453 1.194855,11.470276 1.572174,14.74762c0.251556,3.171509 0.37735,4.65155 0.251556,4.385803c3.961853,0.212891 8.049438,0.265747 12.325775,0.212891c4.213379,0 8.049438,-0.158569 13.080383,-0.422852c5.030884,-0.264221 12.95459,-0.634277 16.79068,-1.110107c3.773163,-0.422791 4.213409,-0.475647 5.722656,-1.532837c1.509277,-1.110046 2.578339,-2.643005 3.144318,-4.864563c-0.062866,-4.281433 -0.125732,-12.263184 -0.251526,-24.420715c-0.062897,-12.263306 0.062897,-28.966736 -0.251526,-48.048645c-0.314453,-19.135071 -1.383514,-48.630249 -1.572205,-65.597961c-0.18866,-16.862 0.18869,-24.262207 0.503143,-34.992615c0.314392,-10.784668 1.320587,-21.620789 1.320587,-29.021057c-0.062897,-7.400146 -0.565979,-12.316101 -1.572174,-15.011841c-1.194824,-0.212952 -2.766998,-0.370056 -4.716492,-0.422913c-1.949463,-0.105713 -5.84845,0.264282 -6.791718,0l0,0c-0.943298,-0.264221 0.125763,-1.321472 1.320587,-1.532898c1.194885,-0.264282 3.710327,0.105774 5.722687,0.211426c2.01239,0.105713 4.024719,0.370056 6.288635,0.422913c2.326813,0.105713 6.288666,-0.157104 7.357727,0c1.069092,0.212952 0,0.845703 -1.069061,1.110046c-1.006195,0.265747 -2.766998,0.422852 -5.219604,0.422852c0.817535,6.237366 1.194885,15.117615 1.069061,27.116577c-0.188629,12.053284 -1.697906,30.341003 -1.823669,44.508728c-0.18866,14.060425 0.691742,25.055115 1.006165,39.432739c0.314453,14.428894 0.628876,33.986755 0.817505,46.251465c0.125824,12.156128 0.18869,16.544922 0.251556,26.429504c0.062897,9.9375 0.062897,20.614868 0,32.560974c2.892792,-0.105652 5.911346,-0.052856 9.432983,0.211426c3.458771,0.265869 6.854614,1.321533 11.256683,1.321533c4.402069,-0.052856 9.370087,-1.057129 14.96698,-1.532959c5.595154,-0.475647 11.571106,-0.951416 18.299957,-1.321411c-1.886597,-18.923462 -2.829895,-35.098328 -2.829895,-49.370239c-0.062866,-14.219055 1.446411,-25.847961 2.580109,-35.468262c1.130188,-9.620361 2.766998,-15.48761 4.211639,-21.777832c1.383514,-6.288818 2.766998,-11.416138 4.213379,-15.644836c-2.263916,-0.21283 -4.337372,-0.21283 -6.288635,0c-2.01236,0.157104 -4.653595,1.320007 -5.533997,1.110046c-0.880402,-0.317139 -1.069061,-2.11438 0.251526,-2.642944c1.320679,-0.528625 5.156738,-0.212891 7.609283,-0.475708c2.452576,-0.262878 4.840485,1.109985 7.106171,-1.05719c2.20105,-2.221497 4.211639,-5.710205 6.03537,-11.947571c1.699677,-6.237305 2.139862,-10.253174 4.403809,-25.10791c2.326782,-14.959106 6.728821,-48.260254 9.181396,-63.377869l0,0c2.452576,-15.011902 3.333008,-16.491943 5.534027,-26.218018c2.139893,-9.724548 4.527832,-20.139221 7.29483,-31.715332c-7.984833,0.89856 -16.098938,1.585815 -24.586884,2.008667c-8.617188,0.369995 -17.358398,0.687134 -26.225403,0.422852c-8.928131,-0.264282 -19.178619,-0.581421 -26.726715,-2.008606c-7.609314,-1.374329 -13.583527,-3.488708 -18.362915,-6.343079c-2.075256,-2.537231 -3.584503,-4.493042 -4.590698,-6.02594c0,-0.052917 -0.062866,-0.105652 -0.062866,-0.105652c-0.062866,-0.105774 -0.125793,-0.15863 -0.18869,-0.264404c-0.062866,-0.105713 -0.062866,-0.158569 -0.125763,-0.21283c-1.006165,-1.637146 -1.383484,-2.537292 -1.069061,-2.905823l-0.754608,-1.742798z"/>
   <path fill="#77605b" fill-rule="evenodd" stroke="#000000" stroke-width="0.036" stroke-miterlimit="10" id="path119" d="m293.0354,896.327271c-0.188629,0.581482 -1.572144,1.744385 -3.898956,3.277283c-2.389679,1.427185 -5.722656,3.435791 -10.250519,5.814453l0,0c1.257751,2.482971 1.069092,4.862976 -0.314392,7.347412c-1.63504,2.167236 -3.6474,3.43573 -8.678314,7.083008c-5.282501,3.700195 -15.53299,12.316162 -22.010284,15.434814c-6.477325,2.905823 -14.96701,4.863098 -16.287628,2.801575c-1.509247,-2.221497 3.270142,-9.831787 7.546387,-14.90625c3.961853,-5.285828 12.514435,-12.157471 17.16803,-15.697571c4.590698,-3.647278 8.112366,-5.445923 10.564911,-5.603027l0,0c-0.943268,-0.687195 -1.320587,-1.268616 -1.82373,-1.744385c-0.314392,-0.527161 -0.754608,-0.949951 -0.628815,-1.267151l0,0c-4.905182,1.744324 -10.187622,5.021606 -16.539154,9.620361c-6.603119,4.545837 -15.092773,11.628845 -21.066986,17.971985c-5.911346,6.39447 -11.571106,13.848999 -13.583466,19.71637c-2.389709,5.708679 -2.075256,12.263306 0.943298,14.164734c2.955658,1.63855 10.061829,-0.740112 17.167999,-4.281555c6.917511,-3.805847 17.042236,-12.36908 24.337067,-17.707825c7.043274,-5.444397 12.514404,-9.408875 18.111298,-14.164612c5.345367,-4.917297 12.451538,-12.157593 15.029877,-14.166199c2.641235,-1.955811 1.886627,-0.105774 0.628876,2.272888c-1.446381,2.325806 -4.653625,5.761658 -9.370087,11.101929l0,0l-0.880432,7.081604l0,0c3.64743,-3.065857 6.854614,-5.655945 9.621643,-8.563232c2.829865,-2.905701 5.533997,-5.021545 6.917511,-8.351685c1.006165,-3.435852 0.440216,-8.827454 0,-11.681763c-0.565948,-2.910217 -1.383514,-4.760254 -2.704132,-5.553162l0,0z"/>
   <path fill="#77605b" fill-rule="evenodd" stroke="#000000" stroke-width="0.036" stroke-miterlimit="10" id="path121" d="m270.144745,902.406067c1.257751,-0.318665 3.144318,0.104309 4.213379,1.267151c1.069092,1.110046 3.584534,3.541504 2.452606,6.080261c-1.572174,2.378601 -5.471161,5.125793 -10.250488,8.827393c-5.030945,3.700134 -12.828857,9.990295 -18.048462,13.161926c-5.408234,2.907166 -10.187592,4.545776 -12.388611,4.334351c-2.20105,-0.369934 -2.515472,-2.590088 0,-6.078674c2.326782,-3.647339 9.49585,-10.731873 14.463898,-14.959167c4.968018,-4.281494 11.256653,-8.351685 14.77829,-10.360291c3.144348,-2.061462 3.271881,-2.272949 4.779388,-2.272949l0,0z"/>
   <path fill="#77605b" fill-rule="evenodd" stroke="#000000" stroke-width="0.036" stroke-miterlimit="10" id="path123" d="m315.045654,889.244141c-1.44635,0.79303 -2.641174,2.325806 -3.332947,4.810242c-0.817535,2.484314 -1.130219,5.973022 -1.194855,9.620239c-0.125763,3.331604 -0.316193,8.246094 0.880432,11.101929c1.006195,2.801453 2.263885,3.541565 5.4711,5.867249c3.018555,2.167236 7.231964,4.545898 12.891754,7.347412l0,0l1.8237,-6.6073l0,0c-3.521667,-1.744446 -6.540222,-3.171631 -9.30722,-5.074585c-2.829895,-1.902832 -7.420563,-5.338684 -7.231964,-5.814392c0.18869,-0.635742 3.018585,0 7.797974,2.53717c4.590668,2.272949 12.828827,7.666016 19.620575,11.894775c6.601349,4.281555 12.828827,9.567444 19.872101,13.426086c6.917542,3.541626 15.092743,6.820313 21.3797,8.827515c6.037079,2.114319 12.39032,3.911499 15.660461,3.331543c3.45697,-0.845764 4.840515,-3.754456 3.897217,-7.875916c-1.383514,-4.334473 -6.414429,-11.417542 -11.445343,-16.967773c-5.408264,-5.657288 -12.388641,-11.524719 -18.991699,-16.176208c-6.665985,-4.863037 -14.086578,-9.303162 -19.557709,-11.893311c-5.408234,-2.642883 -9.621643,-3.75293 -12.638458,-3.541565l0,0c0.754669,0.898682 1.130249,1.744385 0.880432,2.537292c-0.253326,0.792847 -0.943329,1.481445 -2.075256,2.274353l0,0c5.787292,1.532898 11.31958,3.382935 16.853577,6.341614c5.533997,2.85437 12.388641,6.503174 16.224701,10.361816c3.584503,3.75293 4.905121,8.351685 5.154968,11.363159c-0.061157,2.748718 -0.061157,5.867371 -4.840515,5.074463c-4.968079,-1.110046 -17.608215,-7.611633 -24.085541,-11.153198c-6.540192,-3.647278 -11.445313,-7.135986 -14.715454,-9.831787c-3.270081,-2.695801 -5.156677,-4.808655 -5.156677,-6.341553l0,0c-3.395874,0.157104 -6.037079,-0.15863 -8.426788,-1.532898c-2.578339,-1.428711 -4.716492,-4.017395 -5.720917,-6.343079c-0.943268,-2.3302 -0.756409,-4.920288 0.312653,-7.563293l0,0z"/>
   <path fill="#77605b" fill-rule="evenodd" stroke="#000000" stroke-width="0.036" stroke-miterlimit="10" id="path125" d="m332.781433,904.943298c0.817505,2.220093 4.02475,5.285828 8.175232,8.351685c4.150543,2.905762 10.690735,6.341675 16.224731,9.09021c5.280701,2.590149 12.262817,6.290283 15.344269,6.607361c2.766998,0.105713 2.829895,-2.960083 2.138123,-5.338684c-0.943237,-2.695862 -2.01236,-6.02594 -6.351501,-9.356079c-4.466675,-3.382874 -13.710999,-7.981628 -19.245026,-10.360291c-5.47113,-2.591553 -10.690674,-4.22876 -13.269073,-4.07019c-2.766998,0.212952 -4.022949,2.64447 -3.016754,5.075989l0,0z"/>
   <polygon fill="#77605b" fill-rule="evenodd" stroke="#000000" stroke-width="0.036" stroke-miterlimit="10" id="polygon127" points="277.062,924.924 276.811,932.007 268.386,932.536 277.062,924.924"/>
   <polygon fill="#77605b" fill-rule="evenodd" stroke="#000000" stroke-width="0.036" stroke-miterlimit="10" id="polygon129" points="334.289,922.651 332.528,927.99 339.446,926.721 334.289,922.651"/>
  </g>
 </g>
</svg>